<svg width="1200" height="900" viewBox="0 0 1200 900" fill="none" xmlns="http://www.w3.org/2000/svg">
  <rect width="1200" height="900" rx="48" fill="#F2EBE1"/>
  <rect x="74" y="74" width="1052" height="752" rx="42" fill="#FBF8F4"/>
  <rect x="132" y="142" width="520" height="616" rx="34" fill="#FFFDF9"/>
  <path d="M194 212H506" stroke="#D8CDC0" stroke-width="14" stroke-linecap="round"/>
  <path d="M194 268H454" stroke="#D8CDC0" stroke-width="14" stroke-linecap="round"/>
  <path d="M220 446C284 362 355 320 433 320C476 320 516 334 554 362" stroke="#5F7660" stroke-width="24" stroke-linecap="round"/>
  <circle cx="433" cy="320" r="36" fill="#B9864A"/>
  <circle cx="220" cy="446" r="28" fill="#1F1A17"/>
  <circle cx="554" cy="362" r="28" fill="#97A58E"/>
  <rect x="712" y="170" width="330" height="242" rx="30" fill="#F4EEE7"/>
  <rect x="712" y="448" width="330" height="242" rx="30" fill="#F4EEE7"/>
  <path d="M766 248H965" stroke="#AA9D8F" stroke-width="14" stroke-linecap="round"/>
  <path d="M766 304H922" stroke="#AA9D8F" stroke-width="14" stroke-linecap="round"/>
  <path d="M766 526H965" stroke="#AA9D8F" stroke-width="14" stroke-linecap="round"/>
  <path d="M766 582H901" stroke="#AA9D8F" stroke-width="14" stroke-linecap="round"/>
  <circle cx="992" cy="612" r="46" fill="#B9864A" fill-opacity="0.24"/>
</svg>
