<svg width="1200" height="900" viewBox="0 0 1200 900" fill="none" xmlns="http://www.w3.org/2000/svg">
  <rect width="1200" height="900" rx="48" fill="#EDE6DD"/>
  <rect x="66" y="66" width="1068" height="768" rx="40" fill="#FAFAF8"/>
  <rect x="120" y="126" width="210" height="648" rx="28" fill="#1F1A17"/>
  <rect x="376" y="126" width="682" height="118" rx="28" fill="#F4EEE7"/>
  <rect x="376" y="284" width="320" height="214" rx="30" fill="#FFFDF9"/>
  <rect x="738" y="284" width="320" height="214" rx="30" fill="#FFFDF9"/>
  <rect x="376" y="540" width="682" height="194" rx="30" fill="#FFFDF9"/>
  <path d="M432 178H628" stroke="#B7AA9B" stroke-width="14" stroke-linecap="round"/>
  <path d="M432 348H624" stroke="#D8CDC0" stroke-width="12" stroke-linecap="round"/>
  <path d="M432 394H584" stroke="#D8CDC0" stroke-width="12" stroke-linecap="round"/>
  <path d="M794 348H986" stroke="#D8CDC0" stroke-width="12" stroke-linecap="round"/>
  <path d="M794 394H938" stroke="#D8CDC0" stroke-width="12" stroke-linecap="round"/>
  <path d="M430 618H988" stroke="#D8CDC0" stroke-width="14" stroke-linecap="round"/>
  <path d="M430 666H902" stroke="#D8CDC0" stroke-width="14" stroke-linecap="round"/>
  <circle cx="893" cy="392" r="46" fill="#97A58E"/>
  <circle cx="552" cy="392" r="46" fill="#B9864A"/>
</svg>
