<svg width="900" height="1100" viewBox="0 0 900 1100" fill="none" xmlns="http://www.w3.org/2000/svg">
  <rect width="900" height="1100" rx="120" fill="#F4EEE7"/>
  <rect x="70" y="70" width="760" height="960" rx="320" fill="#E8DCCB"/>
  <ellipse cx="452" cy="335" rx="162" ry="178" fill="#D6AA82"/>
  <path d="M290 325C307 197 389 131 472 131C571 131 639 214 624 340C601 527 328 511 290 325Z" fill="#35241B"/>
  <path d="M343 409C343 324 391 258 455 258C519 258 567 324 567 409V510C567 595 519 661 455 661C391 661 343 595 343 510V409Z" fill="#F0C6A1"/>
  <path d="M364 430C385 390 421 363 456 363C492 363 527 389 546 430" stroke="#C88963" stroke-width="18" stroke-linecap="round"/>
  <circle cx="404" cy="464" r="14" fill="#35241B"/>
  <circle cx="507" cy="464" r="14" fill="#35241B"/>
  <path d="M422 560C447 579 475 579 490 560" stroke="#A35A46" stroke-width="14" stroke-linecap="round"/>
  <path d="M232 918C263 761 334 690 455 690C576 690 648 761 678 918V998H232V918Z" fill="#B9864A"/>
  <path d="M264 991C287 848 353 789 455 789C557 789 623 848 646 991" stroke="#FAFAF8" stroke-width="10" stroke-linecap="round"/>
  <circle cx="716" cy="214" r="52" fill="#97A58E" fill-opacity="0.6"/>
  <circle cx="195" cy="250" r="34" fill="#B9864A" fill-opacity="0.22"/>
  <circle cx="710" cy="852" r="70" fill="#5F7660" fill-opacity="0.18"/>
</svg>
